<?xml version="1.0" standalone="no"?>
<!DOCTYPE svg PUBLIC "-//W3C//DTD SVG 20010904//EN"
 "http://www.w3.org/TR/2001/REC-SVG-20010904/DTD/svg10.dtd">
<svg version="1.0" xmlns="http://www.w3.org/2000/svg"
 width="500.000000pt" height="500.000000pt" viewBox="0 0 500.000000 500.000000"
 preserveAspectRatio="xMidYMid meet">
<metadata>
Created by potrace 1.16, written by Peter Selinger 2001-2019
</metadata>
<g transform="translate(0.000000,500.000000) scale(0.100000,-0.100000)"
fill="#000000" stroke="none">
<path d="M697 4009 c-108 -26 -201 -102 -250 -207 l-32 -67 0 -1235 0 -1235
32 -67 c40 -84 97 -141 181 -181 l67 -32 1800 0 1800 0 67 32 c84 40 141 97
181 181 l32 67 0 1235 0 1235 -32 67 c-40 84 -97 141 -181 181 l-67 32 -1780
2 c-1014 0 -1796 -3 -1818 -8z m3582 -158 c9 -6 -46 -62 -206 -207 -955 -869
-1450 -1312 -1485 -1331 -55 -31 -131 -31 -186 0 -23 12 -411 357 -863 767
-452 410 -827 748 -833 753 -8 5 -6 10 4 17 19 12 3549 13 3569 1z m-2990
-756 c358 -324 650 -593 649 -597 -2 -5 -307 -283 -678 -619 -553 -500 -676
-607 -681 -592 -9 22 -11 2388 -3 2420 l6 23 28 -23 c15 -12 321 -287 679
-612z m3130 -595 c0 -657 -4 -1203 -8 -1213 -5 -15 -127 91 -681 592 -371 336
-675 616 -675 621 0 6 304 285 675 621 554 502 676 607 681 592 4 -10 8 -556
8 -1213z m-2247 -205 c64 -59 127 -107 168 -127 59 -30 73 -33 155 -33 82 0
96 3 155 33 41 20 104 68 169 127 57 53 107 94 111 93 4 -2 308 -275 675 -608
368 -333 673 -608 679 -612 8 -6 6 -11 -4 -18 -19 -12 -3549 -13 -3569 -1 -11
7 -7 15 20 39 19 17 324 294 679 616 355 322 648 585 652 585 3 1 53 -42 110
-94z"/>
</g>
</svg>
