<svg id="svg" version="1.1" xmlns="http://www.w3.org/2000/svg" xmlns:xlink="http://www.w3.org/1999/xlink" width="400" height="56.91318327974277" viewBox="0, 0, 400,56.91318327974277"><g id="svgg">
<path id="path0" d="M69.383 23.633 C 65.987 24.850,64.415 28.556,65.963 31.701 C 68.722 37.304,77.026 35.394,77.041 29.153 C 77.050 25.249,73.008 22.334,69.383 23.633 M92.582 23.660 C 88.520 24.989,87.339 30.444,90.478 33.380 C 93.420 36.132,98.017 35.296,99.790 31.687 C 102.018 27.150,97.453 22.066,92.582 23.660 " stroke="none" fill="#0590c8" fill-rule="evenodd"></path>
<path id="path1" d="M190.667 29.250 L 190.667 35.167 191.063 35.167 L 191.460 35.167 191.528 32.542 C 191.623 28.820,192.468 27.393,194.364 27.752 C 195.766 28.018,196.000 28.672,196.000 32.328 L 196.000 35.167 196.417 35.167 L 196.833 35.167 196.833 31.992 C 196.833 28.583,196.777 28.301,195.930 27.510 C 195.024 26.664,192.550 26.972,192.000 28.001 C 191.606 28.736,191.500 28.277,191.500 25.833 L 191.500 23.333 191.083 23.333 L 190.667 23.333 190.667 29.250 M215.833 25.833 C 215.833 28.474,215.812 28.563,215.320 27.938 C 214.007 26.268,211.126 26.823,210.233 28.919 C 208.557 32.848,212.414 37.286,215.138 34.562 C 215.831 33.869,215.833 33.869,215.833 34.583 C 215.833 35.094,215.885 35.167,216.250 35.167 L 216.667 35.167 216.667 29.250 L 216.667 23.333 216.250 23.333 L 215.833 23.333 215.833 25.833 M283.500 29.250 L 283.500 35.167 284.000 35.167 L 284.500 35.167 284.500 32.578 C 284.500 28.643,285.373 27.261,287.497 27.832 C 288.706 28.158,288.832 28.563,288.833 32.125 L 288.833 35.167 289.333 35.167 L 289.833 35.167 289.826 32.292 C 289.815 28.135,289.415 27.222,287.521 27.040 C 286.388 26.931,285.941 27.070,285.162 27.774 L 284.500 28.372 284.500 25.853 L 284.500 23.333 284.000 23.333 L 283.500 23.333 283.500 29.250 M306.667 29.261 L 306.667 35.189 307.125 35.136 L 307.583 35.083 307.627 29.208 L 307.671 23.333 307.169 23.333 L 306.667 23.333 306.667 29.261 M314.500 29.250 L 314.500 35.167 315.000 35.167 L 315.500 35.167 315.500 32.688 C 315.500 29.270,315.905 28.218,317.375 27.822 C 319.341 27.293,319.832 28.152,319.833 32.125 L 319.833 35.167 320.346 35.167 L 320.859 35.167 320.804 31.958 C 320.756 29.093,320.714 28.688,320.411 28.167 C 319.541 26.670,317.075 26.590,315.946 28.022 L 315.504 28.583 315.502 25.958 L 315.500 23.333 315.000 23.333 L 314.500 23.333 314.500 29.250 M348.000 25.929 L 348.000 28.526 347.563 28.007 C 344.968 24.923,341.002 28.741,342.407 32.971 C 343.213 35.396,346.136 36.181,347.624 34.372 L 347.998 33.917 347.999 34.542 C 348.000 35.097,348.046 35.167,348.417 35.167 L 348.833 35.167 348.833 29.250 L 348.833 23.333 348.417 23.333 L 348.000 23.333 348.000 25.929 M151.000 24.250 C 151.000 24.761,151.052 24.833,151.417 24.833 C 151.782 24.833,151.833 24.761,151.833 24.250 C 151.833 23.739,151.782 23.667,151.417 23.667 C 151.052 23.667,151.000 23.739,151.000 24.250 M162.333 24.250 C 162.333 24.761,162.385 24.833,162.750 24.833 C 163.115 24.833,163.167 24.761,163.167 24.250 C 163.167 23.739,163.115 23.667,162.750 23.667 C 162.385 23.667,162.333 23.739,162.333 24.250 M139.466 28.847 L 139.417 33.528 138.851 34.033 C 138.348 34.482,138.203 34.527,137.559 34.439 C 136.557 34.302,136.428 35.076,137.423 35.262 C 140.025 35.750,140.491 34.755,140.496 28.708 L 140.500 24.167 140.007 24.167 L 139.515 24.167 139.466 28.847 M187.083 24.998 C 186.815 25.092,186.734 25.308,186.667 26.099 L 186.583 27.083 185.792 27.134 C 184.549 27.214,184.587 28.000,185.833 28.000 L 186.667 28.000 186.672 31.208 C 186.678 34.564,186.714 34.749,187.447 35.139 C 188.210 35.545,189.500 35.314,189.500 34.771 C 189.500 34.452,189.423 34.420,188.770 34.472 C 187.586 34.567,187.500 34.324,187.500 30.880 L 187.500 28.000 188.417 28.000 C 189.283 28.000,189.333 27.977,189.333 27.583 C 189.333 27.190,189.283 27.167,188.424 27.167 L 187.515 27.167 187.466 26.024 C 187.420 24.964,187.393 24.890,187.083 24.998 M228.125 25.041 C 227.694 25.185,227.667 25.253,227.667 26.181 L 227.667 27.167 226.917 27.167 C 226.228 27.167,226.167 27.201,226.167 27.583 C 226.167 27.965,226.229 28.000,226.904 28.000 L 227.641 28.000 227.695 31.133 C 227.765 35.135,228.058 35.641,230.083 35.261 C 231.017 35.086,230.935 34.382,229.992 34.472 C 228.736 34.592,228.667 34.410,228.667 30.983 L 228.667 28.017 229.542 27.967 C 230.914 27.888,230.969 27.167,229.602 27.167 L 228.681 27.167 228.632 26.027 L 228.583 24.888 228.125 25.041 M310.708 25.110 C 310.575 25.164,310.500 25.548,310.500 26.181 L 310.500 27.167 309.655 27.167 C 308.425 27.167,308.462 27.887,309.696 27.967 L 310.475 28.017 310.529 31.254 C 310.594 35.147,310.641 35.250,312.324 35.250 C 313.403 35.250,313.559 35.181,313.403 34.774 C 313.331 34.587,313.099 34.500,312.675 34.500 C 311.520 34.500,311.422 34.226,311.383 30.899 L 311.349 28.000 312.258 28.000 C 313.632 28.000,313.663 27.213,312.292 27.134 L 311.417 27.083 311.389 26.417 C 311.373 26.050,311.354 25.581,311.347 25.375 C 311.334 25.013,311.145 24.934,310.708 25.110 M144.417 27.204 C 141.126 28.370,141.334 34.269,144.699 35.176 C 147.429 35.911,149.417 34.222,149.416 31.167 C 149.415 27.968,147.205 26.215,144.417 27.204 M156.236 27.237 C 155.953 27.360,155.522 27.713,155.279 28.022 L 154.837 28.583 154.835 27.875 C 154.834 27.231,154.795 27.167,154.417 27.167 L 154.000 27.167 154.000 31.178 L 154.000 35.189 154.458 35.136 L 154.917 35.083 155.000 32.250 C 155.098 28.902,155.234 28.506,156.465 27.961 C 157.170 27.649,157.299 27.640,157.896 27.851 C 159.139 28.291,159.243 28.604,159.302 32.095 L 159.354 35.167 159.760 35.167 L 160.167 35.167 160.166 31.958 C 160.165 28.376,160.070 28.009,158.960 27.332 C 158.322 26.943,157.015 26.898,156.236 27.237 M167.569 27.228 C 167.286 27.356,166.856 27.713,166.613 28.022 L 166.170 28.583 166.169 27.875 C 166.167 27.231,166.129 27.167,165.750 27.167 L 165.333 27.167 165.333 31.178 L 165.333 35.189 165.792 35.136 L 166.250 35.083 166.333 32.250 C 166.409 29.668,166.450 29.362,166.798 28.803 C 167.596 27.520,169.363 27.391,170.232 28.553 C 170.555 28.985,170.588 29.276,170.635 32.105 L 170.687 35.187 171.135 35.135 L 171.583 35.083 171.583 32.000 C 171.583 28.618,171.465 28.098,170.540 27.422 C 169.970 27.005,168.301 26.896,167.569 27.228 M175.064 27.255 C 173.077 28.126,172.607 32.373,174.300 34.151 C 175.493 35.404,177.354 35.479,178.512 34.321 L 179.167 33.667 179.167 34.237 C 179.167 36.862,177.754 38.154,175.417 37.668 C 173.996 37.372,173.923 37.377,173.866 37.770 C 173.765 38.482,176.710 38.791,178.029 38.208 C 179.773 37.437,180.000 36.651,180.000 31.392 L 180.000 27.167 179.583 27.167 C 179.250 27.167,179.167 27.250,179.167 27.583 C 179.167 28.027,178.926 28.148,178.783 27.776 C 178.519 27.088,176.188 26.762,175.064 27.255 M200.301 27.340 C 198.110 28.497,197.686 32.812,199.598 34.491 C 200.327 35.130,201.332 35.396,202.546 35.271 C 204.151 35.104,204.333 35.025,204.333 34.489 L 204.333 34.015 203.646 34.257 C 201.483 35.021,199.780 34.087,199.451 31.958 L 199.354 31.333 202.196 31.333 L 205.038 31.333 204.920 30.375 C 204.571 27.566,202.478 26.190,200.301 27.340 M220.375 27.222 C 217.145 28.393,217.391 34.284,220.706 35.178 C 223.482 35.926,225.417 34.278,225.416 31.167 C 225.415 27.946,223.187 26.202,220.375 27.222 M232.396 27.239 C 230.489 28.069,230.978 30.149,233.362 31.348 C 236.491 32.921,234.968 35.348,231.542 34.248 C 231.218 34.144,231.167 34.187,231.167 34.561 C 231.167 35.100,231.619 35.250,233.250 35.250 C 236.683 35.250,237.218 32.211,234.054 30.682 C 231.061 29.235,231.802 27.178,235.056 27.901 C 235.664 28.035,235.693 28.023,235.639 27.653 C 235.549 27.022,233.497 26.761,232.396 27.239 M242.417 27.240 C 241.872 27.407,241.740 27.530,241.695 27.912 C 241.648 28.309,241.686 28.360,241.945 28.250 C 244.339 27.238,245.681 27.675,245.938 29.552 L 246.045 30.333 244.803 30.333 C 242.539 30.333,241.288 30.975,240.844 32.364 C 240.075 34.772,243.349 36.357,245.353 34.546 L 246.000 33.961 246.000 34.564 C 246.000 35.096,246.049 35.167,246.417 35.167 L 246.833 35.167 246.830 32.042 C 246.824 27.261,245.838 26.188,242.417 27.240 M250.336 27.450 C 247.244 29.079,247.732 34.342,251.053 35.177 C 251.875 35.383,253.779 35.288,254.040 35.027 C 254.460 34.606,253.964 34.349,252.919 34.447 C 250.513 34.672,249.172 33.271,249.375 30.745 C 249.556 28.496,251.090 27.396,253.352 27.895 C 253.848 28.005,253.973 27.977,254.066 27.736 C 254.385 26.903,251.757 26.701,250.336 27.450 M257.571 27.190 C 257.381 27.283,257.024 27.668,256.779 28.046 L 256.333 28.733 256.333 27.950 C 256.333 27.226,256.302 27.167,255.917 27.167 L 255.500 27.167 255.500 31.167 L 255.500 35.167 255.897 35.167 L 256.294 35.167 256.365 32.458 C 256.458 28.893,256.872 28.012,258.458 28.004 C 259.133 28.000,259.167 27.977,259.167 27.500 C 259.167 26.955,258.374 26.801,257.571 27.190 M261.410 27.304 C 258.074 28.864,258.907 34.908,262.509 35.277 C 266.027 35.638,268.059 31.690,266.015 28.467 C 265.183 27.155,262.941 26.589,261.410 27.304 M268.878 27.247 C 267.051 28.042,267.301 30.010,269.366 31.080 C 272.819 32.869,271.741 35.417,268.028 34.244 C 267.677 34.132,267.645 34.166,267.695 34.598 C 267.835 35.814,271.580 35.463,272.247 34.172 C 272.986 32.744,272.431 31.710,270.323 30.587 C 267.753 29.219,268.312 27.118,271.062 27.811 C 272.096 28.071,272.198 28.054,272.137 27.632 C 272.048 27.017,269.972 26.772,268.878 27.247 M274.463 27.342 C 272.614 28.318,273.140 30.162,275.621 31.399 C 278.687 32.929,277.081 35.320,273.708 34.247 C 273.385 34.144,273.333 34.188,273.333 34.561 C 273.333 35.100,273.785 35.250,275.417 35.250 C 278.853 35.250,279.382 32.152,276.201 30.659 C 273.233 29.267,273.993 27.202,277.221 27.885 C 277.821 28.012,277.856 27.997,277.805 27.642 C 277.705 26.954,275.563 26.762,274.463 27.342 M293.210 27.328 C 291.091 28.290,290.567 32.406,292.311 34.392 C 293.344 35.568,297.167 35.649,297.167 34.496 L 297.167 34.015 296.479 34.257 C 294.297 35.027,292.333 33.870,292.333 31.813 L 292.333 31.333 295.083 31.333 L 297.833 31.333 297.833 30.780 C 297.833 27.947,295.570 26.257,293.210 27.328 M300.417 27.226 C 299.878 27.387,299.740 27.512,299.698 27.875 C 299.646 28.323,299.648 28.324,300.198 28.095 C 302.231 27.248,303.824 27.947,303.831 29.688 L 303.833 30.293 302.375 30.366 C 299.465 30.512,298.008 32.008,298.834 34.002 C 299.463 35.520,302.402 35.774,303.481 34.404 C 303.907 33.862,304.000 33.894,304.000 34.583 C 304.000 35.077,304.058 35.167,304.375 35.167 L 304.750 35.167 304.698 31.959 C 304.622 27.227,303.723 26.234,300.417 27.226 M327.792 27.267 C 327.115 27.475,327.000 27.572,327.000 27.940 C 327.000 28.285,327.057 28.345,327.292 28.244 C 329.619 27.245,331.018 27.705,331.272 29.552 L 331.379 30.333 330.064 30.338 C 327.169 30.350,325.637 31.807,326.326 33.894 C 326.842 35.459,329.601 35.820,330.847 34.485 C 331.419 33.873,331.471 33.878,331.441 34.542 C 331.420 35.003,331.478 35.091,331.833 35.132 L 332.250 35.181 332.198 31.966 C 332.121 27.176,331.218 26.213,327.792 27.267 M336.354 27.285 C 336.044 27.438,335.650 27.792,335.479 28.073 L 335.168 28.583 335.167 27.875 C 335.167 27.206,335.140 27.167,334.688 27.167 L 334.208 27.167 334.179 31.167 L 334.149 35.167 334.658 35.167 L 335.167 35.167 335.168 32.708 C 335.169 29.250,335.560 28.221,337.023 27.827 C 339.010 27.292,339.499 28.140,339.499 32.125 L 339.500 35.167 340.013 35.167 L 340.525 35.167 340.471 31.875 C 340.419 28.711,340.401 28.562,340.017 28.023 C 339.310 27.031,337.577 26.682,336.354 27.285 M356.426 27.341 C 352.594 29.253,353.855 35.336,358.083 35.331 C 359.407 35.329,360.000 35.154,360.000 34.766 C 360.000 34.428,359.923 34.409,358.542 34.413 C 356.231 34.419,355.264 33.434,355.275 31.083 C 355.285 28.772,356.920 27.313,358.933 27.820 C 359.923 28.069,360.000 28.054,360.000 27.604 C 360.000 26.917,357.626 26.743,356.426 27.341 M362.417 27.226 C 361.887 27.384,361.740 27.514,361.699 27.859 L 361.649 28.292 362.812 27.949 C 364.745 27.380,365.833 27.994,365.833 29.651 L 365.833 30.333 364.697 30.333 C 362.408 30.333,361.005 31.158,360.753 32.652 C 360.351 35.028,363.431 36.221,365.431 34.465 L 366.000 33.965 366.000 34.566 C 366.000 35.101,366.047 35.167,366.432 35.167 L 366.863 35.167 366.807 31.867 C 366.744 28.221,366.679 27.974,365.616 27.326 C 364.999 26.950,363.494 26.903,362.417 27.226 M370.387 27.773 L 369.667 28.546 369.667 27.856 C 369.667 27.232,369.627 27.167,369.250 27.167 L 368.833 27.167 368.833 31.167 L 368.833 35.167 369.226 35.167 C 369.618 35.167,369.619 35.159,369.705 32.625 C 369.825 29.091,370.315 28.000,371.779 28.000 C 372.469 28.000,372.500 27.978,372.500 27.500 C 372.500 26.616,371.323 26.768,370.387 27.773 M374.590 27.379 C 372.361 28.642,372.012 32.885,374.000 34.558 C 375.290 35.643,378.667 35.537,378.667 34.411 C 378.667 33.926,378.700 33.934,377.942 34.250 C 375.937 35.088,374.128 34.097,373.759 31.958 L 373.652 31.333 376.409 31.333 L 379.167 31.333 379.167 30.430 C 379.167 27.733,376.777 26.140,374.590 27.379 M151.000 31.167 L 151.000 35.167 151.417 35.167 L 151.833 35.167 151.833 31.167 L 151.833 27.167 151.417 27.167 L 151.000 27.167 151.000 31.167 M162.333 31.167 L 162.333 35.167 162.750 35.167 C 163.222 35.167,163.176 35.563,163.176 31.417 C 163.176 26.727,163.221 27.167,162.750 27.167 L 162.333 27.167 162.333 31.167 M146.838 28.042 C 148.542 28.902,149.057 31.781,147.819 33.520 C 146.653 35.158,143.968 34.657,143.307 32.679 C 142.306 29.681,144.467 26.843,146.838 28.042 M178.000 28.144 C 179.562 29.246,179.469 32.878,177.850 33.956 C 176.090 35.129,174.333 33.696,174.333 31.088 C 174.333 28.357,176.189 26.868,178.000 28.144 M202.579 27.904 C 203.253 28.186,203.833 29.193,203.833 30.082 L 203.833 30.676 201.625 30.630 L 199.417 30.583 199.476 30.083 C 199.671 28.426,201.222 27.337,202.579 27.904 M214.500 28.136 C 216.713 29.721,215.859 34.500,213.363 34.500 C 211.762 34.500,211.000 33.416,211.000 31.141 C 211.000 28.362,212.735 26.872,214.500 28.136 M222.530 27.862 C 225.548 28.766,224.946 34.500,221.833 34.500 C 218.287 34.500,218.190 28.043,221.731 27.682 C 221.812 27.673,222.172 27.755,222.530 27.862 M264.447 28.187 C 265.535 28.856,266.071 31.398,265.437 32.880 C 264.559 34.933,261.798 35.079,260.790 33.126 C 259.197 30.038,261.780 26.548,264.447 28.187 M295.779 28.087 C 296.283 28.417,296.668 29.191,296.714 29.960 L 296.750 30.583 294.542 30.630 L 292.333 30.676 292.333 30.248 C 292.333 28.445,294.373 27.166,295.779 28.087 M346.854 28.184 C 348.413 29.286,348.290 33.265,346.667 34.223 C 344.827 35.310,343.258 33.903,343.258 31.167 C 343.258 28.251,344.956 26.843,346.854 28.184 M376.941 27.940 C 377.619 28.261,378.167 29.216,378.167 30.077 L 378.167 30.667 376.010 30.667 C 373.640 30.667,373.605 30.652,373.846 29.781 C 374.277 28.219,375.721 27.360,376.941 27.940 M245.868 31.980 C 245.750 34.146,243.568 35.417,242.242 34.091 C 240.843 32.692,242.573 30.947,245.250 31.056 L 245.917 31.083 245.868 31.980 M303.830 31.792 C 303.817 34.453,300.291 35.798,299.753 33.347 C 299.454 31.985,300.774 31.096,303.208 31.020 L 303.833 31.000 303.830 31.792 M331.260 32.031 C 331.054 33.854,330.430 34.500,328.879 34.500 C 327.880 34.500,327.380 34.167,327.238 33.409 C 326.959 31.926,328.171 31.097,330.730 31.020 L 331.376 31.000 331.260 32.031 M365.833 31.839 C 365.833 34.329,362.801 35.715,361.923 33.625 C 361.310 32.168,362.691 31.070,365.208 31.014 L 365.833 31.000 365.833 31.839 " stroke="none" fill="#545454" fill-rule="evenodd"></path><path id="path2" d="M23.048 23.565 C 16.461 25.717,18.102 35.301,25.000 34.963 C 31.001 34.668,32.605 26.370,27.134 23.916 C 25.887 23.356,24.146 23.206,23.048 23.565 " stroke="none" fill="#64b42d" fill-rule="evenodd"></path><path id="path3" d="M116.397 23.481 C 113.497 24.232,111.386 27.404,111.989 30.101 C 113.447 36.614,122.230 36.690,123.507 30.201 C 124.291 26.216,120.321 22.464,116.397 23.481 " stroke="none" fill="#049c9b" fill-rule="evenodd"></path><path id="path4" d="M46.379 23.590 C 42.150 24.729,40.727 30.141,43.823 33.308 C 46.566 36.114,51.892 35.163,53.242 31.627 C 53.408 31.194,53.589 30.869,53.646 30.904 C 53.872 31.044,53.693 27.893,53.436 27.190 C 52.391 24.348,49.342 22.792,46.379 23.590 M191.567 25.833 C 191.567 27.254,191.593 27.835,191.624 27.125 C 191.655 26.415,191.655 25.252,191.624 24.542 C 191.593 23.831,191.567 24.412,191.567 25.833 M215.666 25.784 C 215.621 27.177,215.642 28.259,215.713 28.187 C 215.784 28.116,215.822 26.976,215.796 25.654 L 215.749 23.250 215.666 25.784 M348.909 29.250 C 348.909 32.550,348.931 33.924,348.958 32.302 C 348.985 30.681,348.985 27.981,348.958 26.302 C 348.931 24.624,348.909 25.950,348.909 29.250 M151.825 24.287 C 151.779 24.675,151.806 24.928,151.883 24.850 C 151.961 24.773,151.998 24.456,151.966 24.146 C 151.910 23.597,151.906 23.601,151.825 24.287 M163.192 24.197 C 163.172 24.690,163.093 24.824,162.792 24.882 L 162.417 24.955 162.797 24.977 C 163.237 25.004,163.387 24.722,163.287 24.056 C 163.227 23.651,163.213 23.671,163.192 24.197 M140.573 28.500 C 140.573 30.929,140.596 31.923,140.625 30.708 C 140.653 29.494,140.653 27.506,140.625 26.292 C 140.596 25.077,140.573 26.071,140.573 28.500 M311.293 25.250 C 311.336 25.479,311.401 25.667,311.436 25.667 C 311.471 25.667,311.500 25.479,311.500 25.250 C 311.500 25.021,311.435 24.833,311.356 24.833 C 311.277 24.833,311.249 25.021,311.293 25.250 M186.552 26.083 C 186.553 26.633,186.584 26.838,186.621 26.539 C 186.658 26.239,186.657 25.789,186.619 25.539 C 186.581 25.288,186.551 25.533,186.552 26.083 M311.375 26.417 C 311.377 26.783,311.411 26.914,311.451 26.706 C 311.491 26.499,311.490 26.199,311.448 26.040 C 311.406 25.880,311.374 26.050,311.375 26.417 M145.542 26.948 C 145.702 26.990,145.965 26.990,146.125 26.948 C 146.285 26.906,146.154 26.872,145.833 26.872 C 145.512 26.872,145.381 26.906,145.542 26.948 M176.375 26.948 C 176.535 26.990,176.798 26.990,176.958 26.948 C 177.119 26.906,176.987 26.872,176.667 26.872 C 176.346 26.872,176.215 26.906,176.375 26.948 M221.542 26.948 C 221.702 26.990,221.965 26.990,222.125 26.948 C 222.285 26.906,222.154 26.872,221.833 26.872 C 221.512 26.872,221.381 26.906,221.542 26.948 M233.542 26.948 C 233.702 26.990,233.965 26.990,234.125 26.948 C 234.285 26.906,234.154 26.872,233.833 26.872 C 233.512 26.872,233.381 26.906,233.542 26.948 M262.708 26.948 C 262.869 26.990,263.131 26.990,263.292 26.948 C 263.452 26.906,263.321 26.872,263.000 26.872 C 262.679 26.872,262.548 26.906,262.708 26.948 M301.708 26.948 C 301.869 26.990,302.131 26.990,302.292 26.948 C 302.452 26.906,302.321 26.872,302.000 26.872 C 301.679 26.872,301.548 26.906,301.708 26.948 M329.208 26.948 C 329.369 26.990,329.631 26.990,329.792 26.948 C 329.952 26.906,329.821 26.872,329.500 26.872 C 329.179 26.872,329.048 26.906,329.208 26.948 M357.875 26.948 C 358.035 26.990,358.298 26.990,358.458 26.948 C 358.619 26.906,358.488 26.872,358.167 26.872 C 357.846 26.872,357.715 26.906,357.875 26.948 M151.905 31.167 C 151.905 33.412,151.929 34.331,151.958 33.208 C 151.987 32.085,151.987 30.248,151.958 29.125 C 151.929 28.002,151.905 28.921,151.905 31.167 M163.218 28.083 C 163.219 28.633,163.250 28.838,163.287 28.539 C 163.325 28.239,163.324 27.789,163.286 27.539 C 163.248 27.288,163.217 27.533,163.218 28.083 M255.405 31.167 C 255.405 33.412,255.429 34.331,255.458 33.208 C 255.487 32.085,255.487 30.248,255.458 29.125 C 255.429 28.002,255.405 28.921,255.405 31.167 M277.750 27.667 C 277.750 27.924,277.806 28.100,277.875 28.058 C 277.944 28.015,278.000 27.839,278.000 27.667 C 278.000 27.494,277.944 27.318,277.875 27.276 C 277.806 27.233,277.750 27.409,277.750 27.667 M369.712 27.833 C 369.712 28.246,369.745 28.415,369.784 28.208 C 369.824 28.002,369.824 27.665,369.784 27.458 C 369.745 27.252,369.712 27.421,369.712 27.833 M299.564 27.574 C 299.513 27.706,299.501 27.949,299.537 28.115 C 299.578 28.303,299.635 28.213,299.689 27.875 C 299.780 27.307,299.721 27.165,299.564 27.574 M243.708 27.782 C 243.869 27.823,244.131 27.823,244.292 27.782 C 244.452 27.740,244.321 27.705,244.000 27.705 C 243.679 27.705,243.548 27.740,243.708 27.782 M270.042 27.782 C 270.202 27.823,270.465 27.823,270.625 27.782 C 270.785 27.740,270.654 27.705,270.333 27.705 C 270.012 27.705,269.881 27.740,270.042 27.782 M363.708 27.782 C 363.869 27.823,364.131 27.823,364.292 27.782 C 364.452 27.740,364.321 27.705,364.000 27.705 C 363.679 27.705,363.548 27.740,363.708 27.782 M186.569 31.000 C 186.569 32.696,186.594 33.390,186.624 32.542 C 186.654 31.694,186.654 30.306,186.624 29.458 C 186.594 28.610,186.569 29.304,186.569 31.000 M231.209 29.083 C 231.211 29.450,231.245 29.580,231.285 29.373 C 231.324 29.166,231.323 28.866,231.281 28.706 C 231.239 28.547,231.207 28.717,231.209 29.083 M311.400 31.000 C 311.400 32.329,311.425 32.873,311.457 32.208 C 311.489 31.544,311.489 30.456,311.457 29.792 C 311.425 29.127,311.400 29.671,311.400 31.000 M160.236 32.167 C 160.236 33.862,160.261 34.556,160.291 33.708 C 160.321 32.860,160.321 31.473,160.291 30.625 C 160.261 29.777,160.236 30.471,160.236 32.167 M163.232 31.417 C 163.233 32.700,163.259 33.203,163.291 32.534 C 163.322 31.866,163.322 30.816,163.290 30.201 C 163.258 29.586,163.232 30.133,163.232 31.417 M245.872 29.833 C 245.872 30.154,245.906 30.285,245.948 30.125 C 245.990 29.965,245.990 29.702,245.948 29.542 C 245.906 29.381,245.872 29.512,245.872 29.833 M304.735 32.000 C 304.735 33.512,304.760 34.131,304.791 33.375 C 304.822 32.619,304.822 31.381,304.791 30.625 C 304.760 29.869,304.735 30.488,304.735 32.000 M332.235 32.000 C 332.235 33.512,332.260 34.131,332.291 33.375 C 332.322 32.619,332.322 31.381,332.291 30.625 C 332.260 29.869,332.235 30.488,332.235 32.000 M196.901 32.417 C 196.901 33.883,196.927 34.461,196.957 33.700 C 196.988 32.940,196.988 31.740,196.957 31.034 C 196.926 30.328,196.901 30.950,196.901 32.417 M296.680 30.120 C 296.667 30.481,296.609 30.492,294.458 30.542 L 292.250 30.594 294.464 30.630 C 296.744 30.668,297.029 30.586,296.779 29.964 C 296.732 29.846,296.687 29.917,296.680 30.120 M173.220 31.000 C 173.220 31.596,173.250 31.840,173.287 31.542 C 173.324 31.244,173.324 30.756,173.287 30.458 C 173.250 30.160,173.220 30.404,173.220 31.000 M373.709 30.333 C 373.765 30.539,374.172 30.585,376.014 30.591 L 378.250 30.599 376.090 30.544 C 374.637 30.508,373.883 30.423,373.786 30.286 C 373.682 30.141,373.660 30.154,373.709 30.333 M199.480 30.547 C 199.552 30.618,200.579 30.656,201.764 30.630 L 203.917 30.582 201.633 30.499 C 200.377 30.454,199.408 30.475,199.480 30.547 M379.205 30.833 C 379.205 31.154,379.240 31.285,379.282 31.125 C 379.323 30.965,379.323 30.702,379.282 30.542 C 379.240 30.381,379.205 30.512,379.205 30.833 M215.712 31.167 C 215.712 31.579,215.745 31.748,215.784 31.542 C 215.824 31.335,215.824 30.998,215.784 30.792 C 215.745 30.585,215.712 30.754,215.712 31.167 M248.212 31.167 C 248.212 31.579,248.245 31.748,248.284 31.542 C 248.324 31.335,248.324 30.998,248.284 30.792 C 248.245 30.585,248.212 30.754,248.212 31.167 M191.566 32.917 C 191.566 34.200,191.592 34.703,191.624 34.034 C 191.656 33.366,191.655 32.316,191.623 31.701 C 191.591 31.086,191.565 31.633,191.566 32.917 M245.155 31.118 C 245.699 31.173,245.825 31.256,245.885 31.594 C 245.948 31.953,245.955 31.947,245.937 31.544 C 245.918 31.119,245.862 31.082,245.207 31.067 L 244.498 31.051 245.155 31.118 M302.792 31.118 C 302.998 31.157,303.335 31.157,303.542 31.118 C 303.748 31.078,303.579 31.045,303.167 31.045 C 302.754 31.045,302.585 31.078,302.792 31.118 M330.292 31.118 C 330.498 31.157,330.835 31.157,331.042 31.118 C 331.248 31.078,331.079 31.045,330.667 31.045 C 330.254 31.045,330.085 31.078,330.292 31.118 M364.792 31.118 C 364.998 31.157,365.335 31.157,365.542 31.118 C 365.748 31.078,365.579 31.045,365.167 31.045 C 364.754 31.045,364.585 31.078,364.792 31.118 M369.731 33.167 C 369.731 34.313,369.758 34.781,369.790 34.208 C 369.823 33.635,369.823 32.698,369.790 32.125 C 369.758 31.552,369.731 32.021,369.731 33.167 M163.212 34.500 C 163.212 34.912,163.245 35.081,163.284 34.875 C 163.324 34.669,163.324 34.331,163.284 34.125 C 163.245 33.919,163.212 34.087,163.212 34.500 M215.653 34.625 C 215.733 35.200,215.745 35.212,215.800 34.771 C 215.833 34.508,215.794 34.227,215.713 34.147 C 215.629 34.063,215.604 34.267,215.653 34.625 M267.611 34.111 C 267.460 34.262,267.470 34.962,267.625 35.058 C 267.694 35.100,267.750 34.879,267.750 34.567 C 267.750 34.255,267.744 34.000,267.736 34.000 C 267.728 34.000,267.672 34.050,267.611 34.111 M303.802 34.583 C 303.839 34.904,303.899 35.167,303.935 35.167 C 303.971 35.167,304.000 34.904,304.000 34.583 C 304.000 34.262,303.940 34.000,303.867 34.000 C 303.794 34.000,303.764 34.262,303.802 34.583 M175.960 37.785 C 176.168 37.824,176.468 37.823,176.627 37.781 C 176.786 37.739,176.617 37.707,176.250 37.709 C 175.883 37.711,175.753 37.745,175.960 37.785 M175.960 38.618 C 176.168 38.658,176.468 38.656,176.627 38.615 C 176.786 38.573,176.617 38.540,176.250 38.542 C 175.883 38.544,175.753 38.578,175.960 38.618 " stroke="none" fill="#745c9c" fill-rule="evenodd"></path><path id="path5" d="M23.099 23.186 C 19.293 24.079,17.301 28.719,19.247 32.161 C 21.300 35.793,26.067 36.457,28.995 33.518 C 33.362 29.134,29.157 21.765,23.099 23.186 M45.967 23.322 C 45.445 23.488,44.906 23.728,44.769 23.854 C 44.632 23.980,44.260 24.271,43.942 24.500 C 43.293 24.968,42.333 26.279,42.333 26.698 C 42.333 26.849,42.257 26.998,42.164 27.029 C 41.908 27.114,41.638 29.104,41.762 29.979 C 42.465 34.911,48.169 37.017,52.031 33.770 C 52.728 33.185,53.633 31.763,53.730 31.102 C 53.751 30.960,53.820 30.791,53.884 30.727 C 54.758 29.853,53.391 25.568,51.896 24.500 C 51.576 24.271,51.215 23.994,51.094 23.884 C 50.221 23.090,47.594 22.801,45.967 23.322 M69.434 23.243 C 66.433 24.107,64.526 27.317,65.167 30.424 C 66.181 35.335,72.394 37.086,75.665 33.382 C 79.787 28.713,75.376 21.533,69.434 23.243 M92.824 23.227 C 88.645 24.354,86.934 29.761,89.720 33.040 C 94.461 38.623,103.022 33.181,100.015 26.495 C 99.624 25.625,98.561 24.399,97.995 24.164 C 97.723 24.052,97.500 23.897,97.500 23.820 C 97.500 23.261,94.235 22.847,92.824 23.227 M115.708 23.339 C 115.135 23.526,114.667 23.751,114.667 23.839 C 114.667 23.928,114.573 24.002,114.458 24.004 C 113.245 24.031,111.636 27.049,111.642 29.287 C 111.659 35.695,120.357 37.674,123.252 31.929 C 125.685 27.102,120.894 21.647,115.708 23.339 M190.409 23.209 C 190.365 23.324,190.349 26.118,190.373 29.417 L 190.417 35.417 191.105 35.467 L 191.794 35.517 191.860 32.800 C 191.949 29.176,192.411 28.161,193.966 28.169 C 195.465 28.177,195.566 28.417,195.667 32.250 L 195.750 35.417 196.303 35.470 C 197.278 35.563,197.333 35.408,197.333 32.571 C 197.333 28.935,197.001 27.686,195.846 26.983 C 195.062 26.507,193.459 26.551,192.542 27.076 L 191.833 27.481 191.833 25.240 L 191.833 23.000 191.161 23.000 C 190.776 23.000,190.455 23.089,190.409 23.209 M215.611 23.111 C 215.550 23.172,215.500 24.186,215.500 25.363 L 215.500 27.504 214.837 27.085 C 214.140 26.646,211.833 26.452,211.833 26.833 C 211.833 26.925,211.727 27.000,211.596 27.000 C 210.024 27.000,208.942 31.272,209.950 33.500 C 210.824 35.431,212.955 36.249,214.741 35.338 C 215.318 35.044,215.406 35.036,215.576 35.268 C 215.700 35.438,215.962 35.507,216.341 35.471 L 216.917 35.417 216.960 29.208 L 217.004 23.000 216.363 23.000 C 216.011 23.000,215.672 23.050,215.611 23.111 M283.373 29.199 L 283.417 35.417 284.083 35.417 L 284.750 35.417 284.836 32.583 C 284.947 28.922,285.306 28.167,286.935 28.167 C 288.410 28.167,288.641 28.811,288.657 32.968 L 288.667 35.519 289.375 35.468 L 290.083 35.417 290.083 32.000 C 290.083 28.150,289.974 27.744,288.735 27.013 C 287.721 26.415,285.531 26.636,285.045 27.386 C 284.974 27.494,284.879 26.571,284.833 25.333 L 284.750 23.083 284.040 23.032 L 283.329 22.981 283.373 29.199 M306.500 29.250 L 306.500 35.519 307.208 35.468 L 307.917 35.417 307.917 29.250 L 307.917 23.083 307.208 23.032 L 306.500 22.981 306.500 29.250 M314.417 23.167 C 314.355 23.266,314.554 23.333,314.907 23.333 L 315.500 23.333 315.500 25.859 L 315.500 28.384 316.086 27.781 C 317.527 26.298,320.148 26.789,320.662 28.639 C 320.755 28.975,320.832 30.581,320.832 32.208 L 320.833 35.167 320.333 35.167 L 319.833 35.167 319.832 32.375 C 319.831 28.443,319.573 27.833,317.909 27.833 C 316.176 27.833,315.610 28.953,315.526 32.542 L 315.465 35.167 314.983 35.167 L 314.500 35.167 314.461 29.292 L 314.421 23.417 314.372 29.083 C 314.315 35.719,314.294 35.537,315.131 35.468 L 315.750 35.417 315.792 32.833 C 315.831 30.385,315.890 30.028,316.421 29.000 C 316.972 27.934,318.807 27.859,319.360 28.879 C 319.485 29.109,319.597 30.417,319.656 32.333 L 319.750 35.417 320.417 35.417 L 321.083 35.417 321.080 32.000 C 321.077 28.198,321.009 27.905,319.943 27.092 C 319.144 26.483,317.457 26.479,316.497 27.085 L 315.833 27.504 315.833 25.252 L 315.833 23.000 315.177 23.000 C 314.815 23.000,314.473 23.075,314.417 23.167 M347.833 25.252 L 347.833 27.504 347.170 27.085 C 343.787 24.950,340.398 29.528,342.344 33.606 C 343.255 35.514,345.795 36.330,347.319 35.203 C 347.822 34.832,347.833 34.831,347.833 35.162 C 347.833 35.445,347.941 35.500,348.500 35.500 L 349.167 35.500 349.167 29.250 L 349.167 23.000 348.500 23.000 L 347.833 23.000 347.833 25.252 M27.134 23.916 C 32.605 26.370,31.001 34.668,25.000 34.963 C 18.102 35.301,16.461 25.717,23.048 23.565 C 24.146 23.206,25.887 23.356,27.134 23.916 M49.665 23.653 C 52.251 24.458,53.705 26.472,53.713 29.257 C 53.730 35.463,45.231 37.219,42.641 31.545 C 40.580 27.032,44.906 22.172,49.665 23.653 M73.562 23.807 C 79.337 26.361,77.489 35.000,71.167 35.000 C 66.311 35.000,63.625 29.340,66.662 25.506 C 68.213 23.548,71.273 22.794,73.562 23.807 M96.872 23.875 C 100.667 25.612,101.527 30.569,98.522 33.380 C 95.580 36.132,90.983 35.296,89.210 31.687 C 86.866 26.913,92.022 21.655,96.872 23.875 M120.301 23.934 C 123.866 25.678,124.706 30.295,121.995 33.236 C 119.287 36.174,113.959 35.249,112.424 31.575 C 110.325 26.550,115.462 21.567,120.301 23.934 M150.833 24.250 L 150.833 25.167 151.500 25.167 L 152.167 25.167 152.167 24.250 L 152.167 23.333 151.500 23.333 L 150.833 23.333 150.833 24.250 M162.071 23.556 C 162.020 23.689,162.002 24.087,162.031 24.441 L 162.083 25.083 162.833 25.083 L 163.583 25.083 163.583 24.250 L 163.583 23.417 162.873 23.365 C 162.371 23.329,162.137 23.385,162.071 23.556 M191.667 25.817 L 191.667 28.300 192.218 27.748 C 193.548 26.419,195.823 26.692,196.589 28.272 C 196.859 28.829,196.903 29.336,196.909 32.000 L 196.917 35.083 196.458 35.136 L 196.000 35.189 195.996 32.553 C 195.990 28.473,195.653 27.724,193.889 27.870 C 192.096 28.019,191.675 28.905,191.670 32.542 L 191.667 35.167 191.167 35.167 L 190.667 35.167 190.667 29.250 L 190.667 23.333 191.167 23.333 L 191.667 23.333 191.667 25.817 M216.667 29.250 L 216.667 35.167 216.148 35.167 C 215.653 35.167,215.633 35.141,215.699 34.574 L 215.769 33.981 215.282 34.502 C 213.551 36.354,210.567 35.231,209.985 32.507 C 209.091 28.320,212.393 25.263,215.134 27.741 L 215.750 28.298 215.700 25.816 L 215.650 23.333 216.158 23.333 L 216.667 23.333 216.667 29.250 M284.500 25.845 L 284.500 28.357 285.046 27.778 C 286.298 26.451,288.616 26.674,289.450 28.201 C 289.703 28.664,289.759 29.253,289.804 31.958 L 289.859 35.167 289.359 35.167 L 288.859 35.167 288.805 31.986 L 288.750 28.805 288.206 28.319 C 287.182 27.405,285.555 27.792,284.903 29.105 C 284.636 29.644,284.575 30.194,284.530 32.458 L 284.478 35.167 283.989 35.167 L 283.500 35.167 283.500 29.250 L 283.500 23.333 284.000 23.333 L 284.500 23.333 284.500 25.845 M307.667 29.250 L 307.667 35.167 307.167 35.167 L 306.667 35.167 306.667 29.250 L 306.667 23.333 307.167 23.333 L 307.667 23.333 307.667 29.250 M349.000 29.250 L 349.000 35.167 348.500 35.167 C 348.036 35.167,348.000 35.123,348.000 34.561 L 348.000 33.955 347.639 34.414 C 346.240 36.192,343.056 35.347,342.357 33.013 C 341.072 28.725,344.578 25.062,347.410 27.733 L 348.000 28.289 348.000 25.811 L 348.000 23.333 348.500 23.333 L 349.000 23.333 349.000 29.250 M151.968 24.278 C 151.888 25.226,151.000 25.243,151.000 24.297 C 151.000 23.705,151.031 23.667,151.510 23.667 C 151.996 23.667,152.018 23.696,151.968 24.278 M163.302 24.292 C 163.257 24.833,163.195 24.917,162.833 24.917 C 162.472 24.917,162.410 24.833,162.365 24.292 C 162.315 23.692,162.334 23.667,162.833 23.667 C 163.332 23.667,163.351 23.692,163.302 24.292 M139.132 28.654 L 139.083 33.307 138.667 33.752 C 138.292 34.152,138.170 34.186,137.458 34.093 L 136.667 33.989 136.667 34.741 C 136.667 35.622,136.936 35.763,138.355 35.627 C 140.560 35.415,140.803 34.741,140.820 28.792 L 140.833 24.000 140.007 24.000 L 139.182 24.000 139.132 28.654 M140.667 28.386 C 140.667 34.375,140.331 35.250,138.031 35.250 C 136.949 35.250,136.915 35.237,136.865 34.808 C 136.816 34.379,136.840 34.366,137.639 34.391 C 139.336 34.444,139.498 33.919,139.499 28.375 L 139.500 24.167 140.083 24.167 L 140.667 24.167 140.667 28.386 M186.833 24.726 C 186.258 24.914,186.249 24.930,186.200 25.958 L 186.151 27.000 185.399 27.000 L 184.647 27.000 184.698 27.625 C 184.748 28.232,184.771 28.252,185.458 28.301 L 186.167 28.352 186.171 30.968 C 186.177 34.957,186.410 35.507,188.143 35.633 C 189.421 35.725,189.871 35.494,189.801 34.781 C 189.753 34.279,189.709 34.247,189.000 34.201 C 187.881 34.127,187.833 33.996,187.833 30.968 L 187.833 28.333 188.667 28.333 L 189.500 28.333 189.500 27.667 L 189.500 27.000 188.667 27.000 L 187.833 27.000 187.833 25.937 C 187.833 24.664,187.661 24.455,186.833 24.726 M227.875 24.764 C 227.350 24.993,227.333 25.033,227.333 26.000 L 227.333 27.000 226.573 27.000 L 225.813 27.000 225.865 27.625 C 225.915 28.232,225.937 28.252,226.625 28.301 L 227.333 28.352 227.337 30.968 C 227.344 35.548,227.528 35.781,230.917 35.504 C 231.100 35.489,231.850 35.528,232.583 35.591 C 235.173 35.813,236.333 35.037,236.333 33.083 C 236.333 31.718,235.845 31.102,234.111 30.279 C 231.613 29.094,232.008 27.966,234.822 28.249 C 236.008 28.368,236.154 28.275,236.164 27.387 C 236.173 26.664,233.166 26.383,232.107 27.008 C 230.073 28.208,230.512 30.297,233.072 31.597 C 234.596 32.371,234.667 32.437,234.667 33.094 C 234.667 34.072,233.331 34.489,231.880 33.964 C 231.440 33.805,231.250 33.805,230.996 33.964 C 230.579 34.224,229.459 34.226,229.200 33.967 C 229.061 33.828,229.000 32.943,229.000 31.059 L 229.000 28.351 229.875 28.300 L 230.750 28.250 230.802 27.625 L 230.853 27.000 229.927 27.000 L 229.000 27.000 229.000 25.851 C 229.000 24.829,228.798 24.342,228.445 24.514 C 228.429 24.521,228.173 24.634,227.875 24.764 M310.838 24.686 C 310.268 24.913,310.172 25.119,310.169 26.125 L 310.167 27.000 309.333 27.000 L 308.500 27.000 308.500 27.566 C 308.500 28.194,308.699 28.333,309.597 28.333 L 310.167 28.333 310.175 31.208 C 310.185 35.020,310.487 35.658,312.281 35.664 C 313.990 35.670,314.658 34.311,313.000 34.200 C 311.771 34.117,311.675 33.876,311.670 30.875 L 311.667 28.333 312.467 28.333 C 313.383 28.333,313.667 28.128,313.667 27.467 C 313.667 27.008,313.650 27.000,312.674 27.000 L 311.681 27.000 311.632 25.805 C 311.581 24.542,311.497 24.424,310.838 24.686 M188.458 27.134 C 189.836 27.213,189.798 28.000,188.417 28.000 L 187.500 28.000 187.500 30.742 C 187.500 34.223,187.714 34.721,189.095 34.457 C 189.470 34.385,189.512 34.426,189.467 34.813 C 189.421 35.215,189.346 35.254,188.547 35.300 C 186.729 35.405,186.500 34.915,186.500 30.922 L 186.500 28.000 185.750 28.000 C 185.061 28.000,185.000 27.966,185.000 27.583 C 185.000 27.201,185.061 27.167,185.750 27.167 L 186.500 27.167 186.500 26.181 C 186.500 25.253,186.527 25.185,186.958 25.041 L 187.417 24.887 187.500 25.985 L 187.583 27.083 188.458 27.134 M229.591 27.167 C 230.450 27.167,230.500 27.190,230.500 27.583 C 230.500 27.977,230.450 28.000,229.583 28.000 L 228.667 28.000 228.667 30.880 C 228.667 34.343,228.755 34.590,229.949 34.455 C 230.663 34.375,230.684 34.385,230.634 34.811 C 230.558 35.467,228.941 35.553,228.227 34.939 L 227.750 34.529 227.696 31.273 L 227.641 28.017 226.878 27.967 C 225.667 27.887,225.628 27.167,226.834 27.167 L 227.667 27.167 227.667 26.181 C 227.667 25.253,227.694 25.185,228.125 25.041 L 228.583 24.888 228.632 26.027 L 228.681 27.167 229.591 27.167 M311.500 26.000 L 311.500 27.167 312.417 27.167 C 313.283 27.167,313.333 27.189,313.333 27.583 C 313.333 27.977,313.283 28.000,312.417 28.000 L 311.500 28.000 311.500 30.974 C 311.500 34.425,311.576 34.623,312.830 34.455 C 313.542 34.359,313.871 34.989,313.236 35.232 C 311.122 36.044,310.500 35.076,310.500 30.975 L 310.500 28.000 309.667 28.000 C 308.889 28.000,308.833 27.972,308.833 27.583 C 308.833 27.194,308.889 27.167,309.667 27.167 L 310.500 27.167 310.500 26.161 C 310.500 25.274,310.544 25.138,310.875 25.005 C 311.485 24.760,311.500 24.783,311.500 26.000 M143.833 27.053 C 141.782 28.056,141.048 31.597,142.410 33.921 C 143.844 36.367,147.932 36.261,149.152 33.746 C 149.373 33.290,149.617 32.786,149.694 32.627 C 149.878 32.244,149.874 29.878,149.688 29.763 C 149.608 29.714,149.496 29.440,149.439 29.154 C 149.032 27.118,146.013 25.987,143.833 27.053 M156.167 26.797 C 156.167 26.868,155.942 27.012,155.667 27.116 C 155.363 27.230,155.167 27.241,155.167 27.143 C 155.167 27.054,154.821 27.005,154.398 27.033 L 153.629 27.083 153.656 30.917 C 153.688 35.570,153.675 35.500,154.500 35.500 C 155.326 35.500,155.333 35.472,155.333 32.359 C 155.333 28.923,155.694 28.176,157.357 28.169 C 158.721 28.164,159.022 28.967,159.118 32.875 L 159.183 35.500 159.823 35.500 C 160.254 35.500,160.498 35.414,160.566 35.236 C 160.726 34.817,160.683 29.526,160.516 29.206 C 160.433 29.047,160.283 28.617,160.183 28.250 C 159.887 27.167,159.018 26.667,157.432 26.667 C 156.736 26.667,156.167 26.725,156.167 26.797 M167.167 27.002 C 166.846 27.167,166.558 27.234,166.528 27.151 C 166.497 27.068,166.141 27.000,165.736 27.000 L 165.000 27.000 165.003 31.042 C 165.005 35.531,165.008 35.546,165.934 35.470 L 166.583 35.417 166.667 32.500 C 166.773 28.772,167.053 28.167,168.670 28.167 C 170.119 28.167,170.333 28.698,170.336 32.317 C 170.339 35.457,170.364 35.544,171.267 35.470 L 171.917 35.417 171.917 32.167 C 171.917 28.428,171.767 27.831,170.639 27.085 C 169.848 26.562,168.106 26.520,167.167 27.002 M175.167 26.833 C 175.167 26.925,175.043 27.000,174.891 27.000 C 173.540 27.000,172.495 30.693,173.190 33.013 C 173.790 35.013,176.274 36.115,178.044 35.166 L 178.667 34.833 178.667 35.255 C 178.667 35.902,178.241 36.777,177.779 37.079 C 177.120 37.511,174.429 37.408,174.132 36.939 C 173.955 36.659,173.724 36.987,173.598 37.699 C 173.454 38.509,173.742 38.661,175.636 38.781 C 177.896 38.925,178.875 38.531,179.803 37.104 L 180.250 36.417 180.301 31.708 L 180.352 27.000 179.593 27.000 C 179.165 27.000,178.833 27.078,178.833 27.178 C 178.833 27.276,178.616 27.201,178.349 27.011 C 177.822 26.636,175.167 26.487,175.167 26.833 M200.500 26.833 C 200.500 26.925,200.390 27.000,200.256 27.000 C 198.034 27.000,197.366 33.014,199.385 34.836 C 200.889 36.191,204.667 35.895,204.667 34.421 C 204.667 33.568,204.535 33.508,203.558 33.917 C 202.152 34.504,200.543 34.043,200.073 32.918 C 199.547 31.659,199.507 31.680,202.542 31.629 L 205.250 31.583 205.234 30.535 C 205.210 29.046,204.460 27.567,203.462 27.041 C 202.707 26.643,200.500 26.488,200.500 26.833 M219.762 27.146 C 219.310 27.397,218.860 27.749,218.762 27.927 C 218.664 28.104,218.542 28.287,218.491 28.333 C 217.809 28.951,217.570 32.138,218.119 33.308 C 219.596 36.461,223.937 36.529,225.406 33.423 C 227.347 29.321,223.514 25.058,219.762 27.146 M242.597 26.812 C 242.547 26.892,242.280 27.002,242.003 27.058 C 241.532 27.152,241.500 27.207,241.500 27.912 C 241.500 28.687,241.832 28.935,242.276 28.490 C 242.924 27.842,245.102 28.137,245.428 28.917 C 245.843 29.912,245.782 30.000,244.675 30.000 C 241.864 30.000,240.500 31.008,240.500 33.084 C 240.500 35.186,242.854 36.385,244.917 35.333 C 245.485 35.044,245.588 35.033,245.710 35.250 C 245.885 35.563,247.162 35.599,247.177 35.292 C 247.510 28.237,246.947 26.684,244.052 26.672 C 243.301 26.669,242.646 26.732,242.597 26.812 M250.139 27.093 C 247.443 28.447,247.233 33.260,249.790 35.063 C 250.545 35.595,252.106 35.814,253.576 35.593 L 254.351 35.477 254.300 34.697 C 254.257 34.019,254.206 33.925,253.917 33.981 C 252.484 34.256,251.184 34.082,250.623 33.539 C 249.930 32.867,249.370 31.222,249.653 30.692 C 249.752 30.507,249.833 30.223,249.833 30.062 C 249.833 29.900,250.029 29.486,250.268 29.141 C 250.935 28.178,251.521 28.055,253.917 28.372 C 254.389 28.435,254.500 27.246,254.053 26.907 C 253.525 26.506,251.074 26.623,250.139 27.093 M257.172 27.016 C 256.927 27.222,256.735 27.289,256.699 27.181 C 256.666 27.082,256.306 27.000,255.900 27.000 L 255.161 27.000 255.205 31.208 L 255.250 35.417 255.917 35.417 L 256.583 35.417 256.682 32.833 C 256.831 28.957,257.023 28.490,258.528 28.339 L 259.417 28.250 259.417 27.500 L 259.417 26.750 258.500 26.709 C 257.775 26.677,257.497 26.742,257.172 27.016 M261.148 27.009 C 258.072 28.570,258.440 34.605,261.667 35.502 C 265.291 36.511,267.926 33.560,266.908 29.633 C 266.765 29.083,266.559 28.518,266.449 28.377 C 265.900 27.670,265.108 27.000,264.821 27.000 C 264.645 27.000,264.500 26.925,264.500 26.833 C 264.500 26.529,261.817 26.669,261.148 27.009 M268.460 27.095 C 266.625 28.296,267.064 30.361,269.402 31.529 C 272.489 33.072,271.588 34.556,267.958 33.908 L 267.333 33.797 267.333 34.547 C 267.333 35.445,267.418 35.494,269.181 35.620 C 273.479 35.927,274.495 31.780,270.500 30.239 C 268.157 29.335,268.501 28.043,271.033 28.235 L 272.500 28.345 272.499 27.714 C 272.496 26.591,269.849 26.185,268.460 27.095 M274.367 26.974 C 272.393 28.026,272.828 30.518,275.167 31.553 C 276.424 32.110,276.833 32.492,276.833 33.111 C 276.833 34.119,275.859 34.370,273.719 33.912 C 273.091 33.778,272.706 34.777,273.196 35.268 C 273.812 35.883,276.850 35.745,277.658 35.065 C 279.471 33.539,278.918 31.555,276.333 30.319 C 273.866 29.139,274.101 28.021,276.771 28.237 L 278.167 28.351 278.165 27.717 C 278.163 26.677,275.793 26.213,274.367 26.974 M292.970 27.053 C 291.585 27.874,291.092 28.951,291.087 31.167 C 291.080 34.421,292.128 35.586,295.056 35.580 C 297.195 35.576,297.500 35.430,297.500 34.411 C 297.500 33.574,297.388 33.522,296.442 33.917 C 294.931 34.548,293.194 33.930,292.916 32.662 C 292.856 32.391,292.738 32.128,292.654 32.075 C 292.145 31.761,292.763 31.667,295.333 31.667 L 298.167 31.667 298.167 30.617 C 298.167 30.039,298.104 29.495,298.028 29.408 C 297.952 29.321,297.799 28.933,297.689 28.546 C 297.497 27.868,296.656 27.000,296.193 27.000 C 296.087 27.000,296.000 26.925,296.000 26.833 C 296.000 26.491,293.629 26.663,292.970 27.053 M300.430 26.812 C 300.381 26.892,300.114 27.002,299.837 27.058 C 299.366 27.152,299.333 27.207,299.333 27.912 C 299.333 28.686,299.665 28.935,300.108 28.492 C 300.982 27.618,303.500 28.343,303.500 29.469 L 303.500 29.953 302.125 30.039 C 299.184 30.224,297.672 31.906,298.497 34.075 C 299.078 35.603,301.775 36.229,303.139 35.151 L 303.583 34.800 303.638 35.159 C 303.685 35.470,303.784 35.511,304.388 35.467 L 305.083 35.417 305.083 32.000 C 305.083 28.141,305.027 27.904,303.917 27.138 C 303.234 26.667,300.668 26.427,300.430 26.812 M328.000 26.833 C 328.000 26.925,327.827 27.000,327.617 27.000 C 327.087 27.000,326.833 27.304,326.833 27.940 C 326.833 28.653,327.012 28.733,327.919 28.424 C 329.624 27.846,331.000 28.284,331.000 29.405 L 331.000 29.953 329.574 30.042 C 327.141 30.194,325.843 31.209,325.836 32.967 C 325.828 35.161,328.071 36.346,330.310 35.330 C 331.180 34.935,331.167 34.936,331.167 35.250 C 331.167 35.567,332.434 35.606,332.525 35.292 C 332.772 34.442,332.394 28.160,332.070 27.726 C 331.405 26.836,328.000 26.089,328.000 26.833 M336.114 27.027 C 335.764 27.288,335.596 27.329,335.455 27.189 C 335.352 27.085,334.980 27.000,334.630 27.000 L 333.994 27.000 334.039 31.208 L 334.083 35.417 334.733 35.470 C 335.635 35.544,335.661 35.457,335.665 32.333 C 335.669 28.824,335.988 28.167,337.688 28.167 C 339.071 28.167,339.316 28.797,339.372 32.500 L 339.417 35.417 340.083 35.417 L 340.750 35.417 340.750 32.000 C 340.750 28.096,340.642 27.662,339.513 27.027 C 338.617 26.524,336.789 26.524,336.114 27.027 M356.149 27.088 C 353.606 28.367,353.066 32.415,355.159 34.508 C 356.078 35.427,356.759 35.672,358.333 35.649 C 360.075 35.624,360.250 35.534,360.250 34.659 C 360.250 33.964,360.224 33.920,359.833 33.971 C 357.397 34.292,356.627 34.067,356.015 32.858 C 354.642 30.145,356.545 27.525,359.334 28.288 C 360.151 28.511,360.333 28.400,360.333 27.680 C 360.333 26.585,357.848 26.233,356.149 27.088 M362.583 26.833 C 362.527 26.925,362.340 27.000,362.169 27.000 C 361.708 27.000,361.333 27.457,361.333 28.017 C 361.333 28.592,361.721 28.817,362.198 28.519 C 363.489 27.713,365.500 28.211,365.500 29.337 L 365.500 30.000 364.592 30.000 C 361.020 30.000,359.128 32.670,361.140 34.871 C 361.924 35.729,364.069 35.930,365.117 35.243 C 365.522 34.978,365.571 34.977,365.754 35.228 C 365.991 35.551,367.100 35.600,367.196 35.292 C 367.399 34.634,367.060 28.387,366.794 27.895 C 366.245 26.878,363.053 26.074,362.583 26.833 M370.542 27.093 C 370.106 27.439,370.000 27.471,370.000 27.252 C 370.000 27.036,369.856 26.991,369.292 27.032 C 368.852 27.064,368.590 27.162,368.600 27.292 C 368.609 27.406,368.628 29.300,368.642 31.500 L 368.667 35.500 369.333 35.500 L 370.000 35.500 370.000 33.125 C 370.000 29.576,370.528 28.333,372.035 28.333 L 372.852 28.333 372.801 27.542 L 372.750 26.750 371.917 26.706 C 371.231 26.669,370.987 26.738,370.542 27.093 M374.470 27.014 C 372.167 28.182,371.690 32.690,373.657 34.696 C 375.144 36.213,379.000 36.007,379.000 34.411 C 379.000 33.574,378.888 33.522,377.942 33.917 C 376.182 34.652,374.551 33.888,374.107 32.120 L 373.994 31.667 376.744 31.667 C 379.941 31.667,379.844 31.731,379.499 29.826 C 379.189 28.120,378.832 27.588,377.523 26.880 C 376.944 26.567,375.201 26.643,374.470 27.014 M146.939 27.081 C 150.239 28.061,150.468 33.863,147.255 35.090 C 144.499 36.143,142.107 34.364,142.090 31.250 C 142.074 28.045,144.156 26.254,146.939 27.081 M159.066 27.300 C 160.066 27.884,160.244 28.569,160.302 32.042 L 160.354 35.167 159.843 35.167 L 159.333 35.167 159.330 32.375 C 159.325 28.542,159.003 27.833,157.267 27.833 C 155.509 27.833,155.002 28.904,155.001 32.625 L 155.000 35.167 154.500 35.167 L 154.000 35.167 154.000 31.167 L 154.000 27.167 154.417 27.167 C 154.786 27.167,154.833 27.237,154.833 27.783 L 154.833 28.398 155.388 27.793 C 155.693 27.460,156.162 27.139,156.430 27.079 C 156.698 27.020,156.992 26.942,157.083 26.908 C 157.405 26.786,158.587 27.020,159.066 27.300 M170.416 27.304 C 171.459 27.902,171.667 28.701,171.667 32.119 L 171.667 35.167 171.167 35.167 L 170.667 35.167 170.666 32.458 C 170.664 28.461,170.324 27.726,168.544 27.872 C 166.764 28.018,166.342 28.912,166.337 32.542 L 166.333 35.167 165.833 35.167 L 165.333 35.167 165.333 31.167 L 165.333 27.167 165.855 27.167 C 166.358 27.167,166.374 27.187,166.282 27.750 C 166.183 28.363,166.405 28.562,166.579 28.015 C 166.907 26.981,169.133 26.569,170.416 27.304 M177.536 27.007 C 177.877 27.102,178.384 27.371,178.661 27.605 L 179.167 28.030 179.167 27.598 C 179.167 27.249,179.246 27.167,179.583 27.167 L 180.000 27.167 180.000 31.551 C 180.000 36.492,179.865 37.115,178.609 37.964 C 176.969 39.073,173.415 38.665,173.891 37.423 C 173.963 37.236,174.100 37.240,174.697 37.447 C 177.188 38.311,178.819 37.275,179.085 34.660 L 179.195 33.583 178.736 34.145 C 177.168 36.066,174.191 35.221,173.424 32.639 C 172.393 29.167,174.572 26.184,177.536 27.007 M203.278 27.275 C 204.182 27.703,204.992 29.322,204.997 30.708 L 205.000 31.333 202.250 31.333 L 199.500 31.333 199.500 31.864 C 199.500 33.817,201.443 34.976,203.500 34.250 C 204.395 33.934,204.333 33.916,204.333 34.492 C 204.333 35.921,200.096 35.567,199.103 34.055 C 196.756 30.486,199.762 25.606,203.278 27.275 M223.665 27.385 C 226.382 28.776,226.100 34.004,223.249 35.092 C 220.519 36.135,218.100 34.334,218.088 31.250 C 218.075 27.742,220.747 25.891,223.665 27.385 M234.824 27.013 C 235.764 27.215,235.856 27.294,235.727 27.788 C 235.648 28.090,235.569 28.115,235.111 27.984 C 232.061 27.109,231.094 29.196,233.917 30.560 C 236.197 31.663,236.858 33.286,235.540 34.544 C 234.337 35.691,231.167 35.668,231.167 34.512 L 231.167 34.015 231.854 34.257 C 233.505 34.840,235.000 34.282,235.000 33.083 C 235.000 32.401,234.453 31.900,232.900 31.159 C 229.685 29.625,231.253 26.248,234.824 27.013 M245.750 27.310 C 246.675 27.833,246.811 28.396,246.866 31.959 L 246.917 35.167 246.458 35.167 C 246.040 35.167,246.000 35.112,245.999 34.542 L 245.998 33.917 245.624 34.361 C 244.407 35.805,241.688 35.650,240.983 34.096 C 240.040 32.021,241.396 30.490,244.292 30.362 L 245.833 30.294 245.833 29.551 C 245.833 28.039,244.334 27.397,242.417 28.088 C 242.050 28.220,241.731 28.329,241.708 28.331 C 241.685 28.332,241.667 28.148,241.667 27.923 C 241.667 26.955,244.400 26.545,245.750 27.310 M253.792 27.113 C 254.077 27.181,254.167 27.322,254.167 27.703 C 254.167 28.111,254.113 28.181,253.875 28.087 C 251.374 27.102,249.076 28.873,249.391 31.542 C 249.664 33.857,251.156 34.806,253.750 34.313 C 254.272 34.214,254.321 35.087,253.801 35.226 C 249.873 36.278,247.039 32.827,248.741 29.066 C 249.547 27.284,251.440 26.552,253.792 27.113 M258.792 26.938 C 259.524 27.135,259.305 28.000,258.522 28.000 C 256.956 28.000,256.487 28.989,256.371 32.542 L 256.286 35.167 255.810 35.167 L 255.333 35.167 255.333 31.167 L 255.333 27.167 255.833 27.167 C 256.309 27.167,256.333 27.201,256.333 27.858 L 256.333 28.549 256.712 27.983 C 256.920 27.672,257.351 27.286,257.670 27.125 C 258.325 26.796,258.285 26.803,258.792 26.938 M264.848 27.341 C 267.512 28.700,267.460 33.793,264.769 35.014 C 262.030 36.259,259.339 34.389,259.335 31.238 C 259.330 27.804,262.024 25.900,264.848 27.341 M271.792 27.113 C 272.071 27.180,272.167 27.323,272.167 27.673 C 272.167 28.124,272.145 28.137,271.626 27.988 C 268.408 27.065,267.551 29.363,270.626 30.670 C 272.772 31.582,273.267 33.697,271.617 34.903 C 270.739 35.545,267.658 35.446,267.528 34.771 C 267.401 34.115,267.599 33.991,268.347 34.255 C 271.455 35.351,272.706 32.863,269.786 31.393 C 268.235 30.612,267.667 30.008,267.667 29.141 C 267.667 27.320,269.298 26.519,271.792 27.113 M277.637 27.188 C 278.078 27.355,278.102 28.131,277.663 28.023 C 274.350 27.214,273.091 29.037,275.965 30.482 C 278.345 31.679,279.017 33.139,277.798 34.462 C 276.689 35.666,273.333 35.704,273.333 34.512 L 273.333 34.015 274.021 34.257 C 277.155 35.363,278.460 32.628,275.417 31.334 C 271.611 29.715,273.751 25.718,277.637 27.188 M296.167 27.317 C 297.177 27.829,297.830 29.125,297.832 30.625 L 297.833 31.333 295.083 31.333 L 292.333 31.333 292.333 31.798 C 292.333 33.746,294.317 34.962,296.333 34.250 C 297.229 33.934,297.167 33.916,297.167 34.492 C 297.167 35.079,296.516 35.331,294.999 35.332 C 292.465 35.335,291.276 34.029,291.281 31.250 C 291.287 27.820,293.555 25.995,296.167 27.317 M302.910 27.016 C 304.535 27.425,304.815 28.210,304.826 32.375 L 304.833 35.167 304.333 35.167 C 303.882 35.167,303.833 35.115,303.833 34.635 L 303.833 34.104 303.375 34.542 C 301.611 36.225,298.669 35.251,298.667 32.983 C 298.666 31.330,299.790 30.501,302.241 30.346 L 303.750 30.250 303.729 29.750 C 303.717 29.475,303.698 29.115,303.687 28.951 C 303.620 27.958,301.822 27.485,300.391 28.083 C 299.590 28.418,299.500 28.402,299.500 27.927 C 299.500 27.438,299.552 27.402,300.691 27.095 C 301.802 26.796,302.010 26.789,302.910 27.016 M330.417 27.016 C 332.026 27.454,332.333 28.320,332.333 32.425 L 332.333 35.167 331.833 35.167 C 331.369 35.167,331.333 35.123,331.333 34.561 L 331.333 33.955 330.972 34.414 C 329.349 36.477,325.427 34.905,326.152 32.482 C 326.594 31.008,327.808 30.333,330.020 30.333 C 331.332 30.333,331.378 30.291,331.183 29.251 C 330.935 27.923,329.514 27.405,327.933 28.066 C 327.087 28.419,327.000 28.406,327.000 27.927 C 327.000 27.438,327.052 27.402,328.191 27.095 C 329.296 26.798,329.577 26.788,330.417 27.016 M339.323 27.311 C 340.370 28.065,340.412 28.234,340.468 31.845 L 340.519 35.167 340.010 35.167 L 339.500 35.167 339.500 32.242 C 339.500 28.519,339.202 27.832,337.588 27.834 C 335.780 27.836,335.302 28.762,335.201 32.458 L 335.128 35.167 334.647 35.167 L 334.167 35.167 334.167 31.167 L 334.167 27.167 334.667 27.167 C 335.127 27.167,335.167 27.213,335.167 27.753 L 335.167 28.339 335.625 27.829 C 336.501 26.855,338.333 26.598,339.323 27.311 M359.776 27.116 C 360.208 27.282,360.058 28.210,359.625 28.053 C 357.324 27.217,355.292 28.649,355.292 31.105 C 355.292 33.662,357.473 35.219,359.708 34.257 C 359.950 34.153,360.000 34.219,360.000 34.641 C 360.000 35.579,357.098 35.650,355.808 34.743 C 353.417 33.063,353.734 28.335,356.307 27.302 C 357.394 26.866,358.912 26.785,359.776 27.116 M365.719 27.277 C 366.643 27.755,366.826 28.542,366.830 32.053 L 366.833 35.189 366.375 35.136 C 365.964 35.089,365.921 35.025,365.963 34.515 L 366.009 33.946 365.546 34.413 C 363.681 36.296,360.502 35.235,360.714 32.801 C 360.857 31.167,361.867 30.480,364.292 30.366 L 365.833 30.294 365.833 29.551 C 365.833 28.039,364.334 27.397,362.417 28.088 C 362.050 28.220,361.731 28.329,361.708 28.331 C 361.685 28.332,361.667 28.118,361.667 27.855 C 361.667 27.363,361.771 27.308,363.417 26.935 C 363.933 26.818,365.194 27.006,365.719 27.277 M372.236 26.934 C 372.852 27.171,372.556 28.000,371.856 28.000 C 370.315 28.000,369.833 29.119,369.833 32.696 L 369.833 35.167 369.333 35.167 L 368.833 35.167 368.833 31.167 L 368.833 27.167 369.333 27.167 C 369.800 27.167,369.833 27.209,369.834 27.792 L 369.836 28.417 370.144 27.949 C 370.576 27.293,371.044 26.994,371.861 26.853 C 371.923 26.842,372.091 26.879,372.236 26.934 M376.880 27.010 C 378.223 27.383,379.019 28.514,379.252 30.378 L 379.372 31.333 376.603 31.333 L 373.833 31.333 373.833 31.864 C 373.833 33.817,375.776 34.976,377.833 34.250 C 378.729 33.934,378.667 33.916,378.667 34.492 C 378.667 35.921,374.432 35.567,373.434 34.055 C 371.328 30.865,373.652 26.114,376.880 27.010 M150.833 31.250 L 150.833 35.500 151.500 35.500 L 152.167 35.500 152.167 31.250 L 152.167 27.000 151.500 27.000 L 150.833 27.000 150.833 31.250 M162.111 27.111 C 161.972 27.250,161.963 34.876,162.101 35.236 C 162.241 35.600,163.426 35.600,163.566 35.236 C 163.621 35.091,163.667 33.179,163.667 30.986 L 163.667 27.000 162.944 27.000 C 162.547 27.000,162.172 27.050,162.111 27.111 M152.000 31.167 L 152.000 35.167 151.500 35.167 L 151.000 35.167 151.000 31.167 L 151.000 27.167 151.500 27.167 L 152.000 27.167 152.000 31.167 M163.333 31.167 L 163.333 35.167 162.833 35.167 L 162.333 35.167 162.333 31.167 L 162.333 27.167 162.833 27.167 L 163.333 27.167 163.333 31.167 M144.483 28.210 C 142.148 29.761,143.065 34.500,145.700 34.500 C 147.964 34.500,149.175 31.695,147.981 29.215 C 147.339 27.881,145.690 27.407,144.483 28.210 M175.750 27.991 C 173.887 28.753,173.827 33.105,175.667 34.049 C 177.689 35.087,179.570 32.828,178.994 30.053 C 178.606 28.188,177.299 27.357,175.750 27.991 M200.917 27.992 C 200.213 28.283,199.500 29.383,199.500 30.178 C 199.500 30.480,199.635 30.500,201.667 30.500 C 204.081 30.500,204.006 30.545,203.661 29.302 C 203.336 28.133,202.056 27.521,200.917 27.992 M211.972 28.307 C 210.530 29.573,210.671 33.231,212.199 34.163 C 214.482 35.555,216.678 32.135,215.353 29.250 C 214.682 27.789,213.073 27.340,211.972 28.307 M220.483 28.210 C 218.154 29.758,219.070 34.500,221.698 34.500 C 223.409 34.500,224.408 33.240,224.407 31.083 C 224.406 28.487,222.341 26.975,220.483 28.210 M261.854 28.109 C 260.321 28.889,259.889 32.050,261.115 33.508 C 262.909 35.639,265.673 34.220,265.663 31.173 C 265.654 28.604,263.804 27.115,261.854 28.109 M293.564 28.151 C 293.053 28.463,292.333 29.672,292.333 30.219 C 292.333 30.468,292.580 30.500,294.500 30.500 L 296.667 30.500 296.667 29.984 C 296.667 28.286,294.978 27.289,293.564 28.151 M344.459 28.095 C 342.784 29.004,342.812 33.227,344.500 34.223 C 345.862 35.028,347.453 34.100,347.828 32.281 C 348.451 29.262,346.584 26.942,344.459 28.095 M375.226 27.999 C 374.704 28.209,373.999 29.211,373.887 29.901 L 373.790 30.500 375.978 30.500 C 378.419 30.500,378.343 30.545,377.971 29.301 C 377.608 28.092,376.407 27.522,375.226 27.999 M147.319 28.765 C 149.028 30.594,148.050 34.167,145.841 34.167 C 143.306 34.167,142.424 29.870,144.662 28.427 C 145.354 27.982,146.753 28.159,147.319 28.765 M177.998 28.625 C 179.307 29.817,178.905 33.268,177.390 33.844 C 175.333 34.625,173.846 31.742,174.997 29.206 C 175.516 28.061,177.052 27.764,177.998 28.625 M202.456 28.271 C 202.887 28.387,203.500 29.291,203.500 29.811 C 203.500 30.153,203.427 30.167,201.649 30.167 L 199.797 30.167 199.904 29.708 C 200.151 28.655,201.356 27.976,202.456 28.271 M214.534 28.516 C 216.235 30.259,215.354 34.167,213.260 34.167 C 211.154 34.167,210.409 29.416,212.351 28.368 C 212.844 28.102,214.221 28.195,214.534 28.516 M223.347 28.794 C 224.481 30.064,224.294 32.912,223.016 33.822 C 220.855 35.361,218.503 32.164,219.810 29.465 C 220.498 28.044,222.361 27.691,223.347 28.794 M264.440 28.520 C 265.747 29.604,265.647 32.858,264.279 33.792 C 261.823 35.467,259.493 31.585,261.371 28.947 C 261.927 28.167,263.715 27.918,264.440 28.520 M295.723 28.542 C 296.095 28.883,296.588 29.967,296.440 30.116 C 296.405 30.150,295.541 30.157,294.519 30.131 L 292.660 30.083 293.038 29.334 C 293.634 28.154,294.896 27.782,295.723 28.542 M346.853 28.613 C 348.571 30.330,347.693 34.167,345.582 34.167 C 344.073 34.167,343.280 32.623,343.575 30.260 C 343.800 28.458,345.729 27.489,346.853 28.613 M377.025 28.347 C 377.210 28.446,377.468 28.781,377.597 29.091 C 378.043 30.158,378.030 30.167,376.000 30.167 C 373.850 30.167,373.727 30.032,374.808 28.861 C 375.490 28.122,376.268 27.942,377.025 28.347 M243.222 31.350 C 241.777 31.768,241.368 33.749,242.610 34.315 C 244.231 35.054,245.833 33.864,245.833 31.922 L 245.833 31.167 244.792 31.182 C 244.219 31.190,243.512 31.265,243.222 31.350 M301.098 31.413 C 299.144 32.110,299.366 34.501,301.384 34.499 C 302.755 34.498,303.570 33.678,303.743 32.125 L 303.850 31.167 302.800 31.174 C 302.222 31.178,301.457 31.286,301.098 31.413 M328.598 31.413 C 326.609 32.123,326.842 34.500,328.901 34.500 C 330.260 34.500,331.031 33.688,331.236 32.042 L 331.345 31.167 330.297 31.174 C 329.721 31.178,328.957 31.286,328.598 31.413 M363.083 31.418 C 361.159 32.100,361.445 34.501,363.451 34.499 C 364.927 34.498,365.833 33.523,365.833 31.933 L 365.833 31.167 364.792 31.174 C 364.219 31.178,363.450 31.288,363.083 31.418 M245.624 31.976 C 245.372 33.860,243.587 34.921,242.500 33.833 C 241.522 32.856,242.476 31.689,244.417 31.488 C 244.967 31.431,245.483 31.373,245.564 31.359 C 245.644 31.345,245.672 31.623,245.624 31.976 M303.500 31.922 C 303.500 33.323,302.745 34.170,301.505 34.161 C 299.063 34.144,299.696 31.784,302.219 31.496 C 302.786 31.432,303.306 31.369,303.375 31.356 C 303.444 31.344,303.500 31.598,303.500 31.922 M331.000 32.090 C 331.000 32.839,330.932 32.985,330.216 33.766 C 329.735 34.291,328.376 34.341,327.931 33.850 C 327.066 32.893,327.966 31.695,329.697 31.498 C 330.276 31.433,330.806 31.369,330.875 31.356 C 330.944 31.344,331.000 31.674,331.000 32.090 M365.500 32.218 C 365.500 33.874,363.279 35.014,362.426 33.796 C 361.632 32.662,362.468 31.693,364.417 31.489 C 364.967 31.431,365.435 31.373,365.458 31.359 C 365.481 31.345,365.500 31.732,365.500 32.218 " stroke="none" fill="#b1b2b3" fill-rule="evenodd">
</path>
</g>
</svg>