<?xml version="1.0" standalone="no"?>
<!DOCTYPE svg PUBLIC "-//W3C//DTD SVG 20010904//EN"
 "http://www.w3.org/TR/2001/REC-SVG-20010904/DTD/svg10.dtd">
<svg version="1.0" xmlns="http://www.w3.org/2000/svg"
 width="878.000000pt" height="351.000000pt" viewBox="0 0 878.000000 351.000000"
 preserveAspectRatio="xMidYMid meet">
<metadata>
Created by potrace 1.16, written by Peter Selinger 2001-2019
</metadata>
<g transform="translate(0.000000,351.000000) scale(0.100000,-0.100000)"
fill="#005EB8" stroke="none">
<path d="M0 1755 l0 -1755 4390 0 4390 0 0 1755 0 1755 -4390 0 -4390 0 0
-1755z m7802 1475 c209 -12 364 -32 491 -64 110 -28 167 -51 167 -66 0 -17
-171 -543 -180 -553 -3 -4 -32 4 -64 18 -181 80 -476 119 -729 96 -201 -19
-310 -64 -360 -148 -27 -48 -33 -133 -13 -187 34 -90 118 -144 396 -256 281
-113 411 -190 520 -307 121 -129 170 -255 177 -458 24 -623 -433 -986 -1287
-1021 -176 -7 -343 5 -555 41 -136 23 -403 87 -429 102 -10 6 8 74 73 283 48
151 89 281 91 288 4 10 16 7 50 -12 66 -36 216 -83 349 -108 168 -32 477 -32
603 0 151 37 238 91 284 174 25 45 29 64 29 128 0 164 -84 237 -440 378 -214
85 -277 115 -370 177 -148 98 -241 225 -281 385 -25 99 -15 315 20 433 89 300
308 500 661 605 233 69 467 90 797 72z m-5697 -1028 c161 -540 295 -985 299
-989 3 -3 6 -2 6 3 0 8 382 1894 395 1952 l5 22 360 0 c300 0 360 -2 360 -14
0 -7 -135 -647 -300 -1422 -165 -775 -300 -1412 -300 -1416 0 -4 -216 -8 -479
-8 l-479 0 -19 63 c-364 1205 -579 1907 -583 1907 -3 0 -67 -309 -143 -688
-77 -378 -166 -821 -200 -984 l-60 -298 -358 0 c-197 0 -360 3 -362 8 -3 6
596 2809 608 2840 3 10 105 12 481 10 l477 -3 292 -983z m2475 971 c0 -16
-205 -1020 -216 -1055 -5 -17 21 -18 448 -18 l454 0 107 523 c60 287 112 532
117 545 l10 22 374 0 c206 0 377 -4 380 -8 4 -7 -576 -2806 -589 -2839 -7 -20
-765 -19 -765 0 0 14 237 1158 246 1190 5 16 -21 17 -448 17 l-454 0 -113
-543 c-62 -298 -119 -572 -128 -610 l-15 -67 -385 0 -385 0 5 23 c3 12 137
650 297 1417 160 767 292 1401 295 1408 3 9 89 12 385 12 351 0 380 -1 380
-17z"/>
</g>
</svg>
