<?xml version="1.0" standalone="no"?>
<!DOCTYPE svg PUBLIC "-//W3C//DTD SVG 20010904//EN"
 "http://www.w3.org/TR/2001/REC-SVG-20010904/DTD/svg10.dtd">
<svg version="1.0" xmlns="http://www.w3.org/2000/svg"
 width="839.000000pt" height="297.000000pt" viewBox="0 0 839.000000 297.000000"
 preserveAspectRatio="xMidYMid meet">
<metadata>
Created by potrace 1.16, written by Peter Selinger 2001-2019
</metadata>
<g transform="translate(0.000000,297.000000) scale(0.100000,-0.100000)"
fill="#005EB8" stroke="none">
<path d="M5610 2125 l0 -485 1200 0 1200 0 0 485 0 485 -1200 0 -1200 0 0
-485z m2263 394 c26 -6 47 -17 47 -23 0 -16 -41 -139 -50 -149 -3 -4 -24 0
-46 9 -54 23 -203 23 -238 1 -62 -41 -35 -98 65 -137 93 -37 122 -55 157 -94
71 -81 67 -204 -11 -292 -50 -56 -118 -89 -220 -105 -111 -18 -334 8 -345 39
-2 7 6 44 18 83 17 58 24 70 38 64 51 -20 163 -36 215 -31 95 9 127 34 127 95
0 36 -20 54 -105 88 -151 62 -186 97 -193 194 -10 143 86 241 268 273 42 8
223 -2 273 -15z m-1768 1 c4 -6 31 -95 61 -198 72 -247 93 -314 97 -318 3 -3
28 111 78 364 15 78 31 147 34 152 7 12 192 14 199 2 2 -4 -4 -46 -15 -93 -10
-46 -42 -194 -70 -329 -56 -273 -75 -350 -87 -362 -5 -5 -64 -7 -132 -6 l-123
3 -33 100 c-18 55 -50 159 -70 230 -44 155 -60 196 -68 175 -3 -8 -21 -98 -41
-200 -20 -102 -41 -212 -48 -245 l-12 -60 -100 0 c-94 0 -100 1 -99 20 2 18
27 141 132 628 16 77 33 132 42 137 20 13 247 13 255 0z m756 -10 c-2 -8 -16
-77 -31 -152 l-27 -138 118 0 c137 0 118 -21 158 174 l27 131 102 3 c82 2 103
0 108 -12 3 -8 -4 -56 -16 -108 -11 -51 -45 -212 -74 -358 -30 -146 -59 -278
-65 -293 l-11 -28 -102 3 c-85 2 -103 6 -101 18 1 8 15 82 32 164 17 82 31
151 31 153 0 1 -53 3 -119 3 l-118 0 -12 -52 c-6 -29 -21 -100 -33 -158 -11
-58 -25 -111 -31 -117 -9 -13 -197 -19 -209 -8 -3 3 6 56 19 118 29 133 122
579 130 622 10 53 17 56 127 53 84 -3 100 -6 97 -18z"/>
<path d="M2054 620 c-32 -13 -72 -66 -85 -113 -10 -35 -9 -51 7 -97 17 -48 25
-58 64 -77 43 -22 119 -30 154 -17 9 3 16 15 16 26 0 18 -5 19 -40 13 -53 -9
-102 9 -123 44 -22 37 -22 109 -1 140 23 32 78 53 118 46 26 -5 35 -3 40 10 3
9 4 21 0 26 -7 11 -122 11 -150 -1z"/>
<path d="M5335 604 c-28 -30 -34 -89 -12 -117 6 -9 32 -25 57 -35 59 -25 75
-44 60 -71 -14 -26 -51 -36 -89 -23 -26 9 -30 8 -35 -11 -3 -12 -3 -24 0 -27
3 -3 37 -5 76 -5 64 0 72 2 94 28 46 54 27 107 -56 151 -61 32 -72 52 -41 77
18 15 32 17 62 13 37 -6 39 -5 39 20 0 25 -1 26 -65 26 -58 0 -69 -3 -90 -26z"/>
<path d="M7150 528 c0 -131 12 -173 53 -198 54 -34 143 -24 187 20 18 18 20
32 20 150 l0 130 -30 0 -30 0 0 -114 c0 -99 -3 -117 -21 -140 -11 -14 -31 -26
-43 -26 -56 0 -75 50 -76 193 l0 87 -30 0 -30 0 0 -102z"/>
<path d="M6898 598 c-9 -7 -18 -22 -20 -33 -2 -12 -12 -21 -26 -23 -31 -5 -28
-32 3 -32 25 0 25 -1 25 -80 0 -94 16 -120 75 -120 28 0 35 4 35 20 0 13 -7
20 -19 20 -32 0 -42 24 -39 92 3 60 4 63 31 66 15 2 27 9 27 17 0 8 -12 15
-27 17 -23 2 -29 8 -31 36 -4 35 -10 39 -34 20z"/>
<path d="M7915 601 c-11 -4 -22 -19 -25 -32 -4 -15 -14 -25 -28 -27 -29 -4
-28 -30 1 -34 20 -3 22 -9 25 -83 3 -92 19 -115 78 -115 27 0 34 4 34 19 0 13
-8 21 -22 23 -21 3 -23 9 -26 81 -3 77 -3 77 23 77 16 0 25 6 25 15 0 9 -9 15
-25 15 -22 0 -25 4 -25 35 0 37 -3 38 -35 26z"/>
<path d="M2292 530 c-36 -22 -52 -54 -52 -106 0 -79 56 -122 142 -111 50 7 75
29 88 79 31 114 -78 199 -178 138z m108 -42 c27 -29 27 -91 0 -118 -44 -44
-100 -11 -100 60 0 41 30 80 60 80 11 0 28 -10 40 -22z"/>
<path d="M2600 533 c-17 -12 -25 -13 -28 -5 -2 7 -15 12 -28 12 -24 0 -24 0
-24 -116 l0 -115 28 3 c27 3 27 4 30 84 2 67 6 85 23 100 15 14 24 16 37 8 14
-9 18 -30 20 -103 l3 -91 28 0 29 0 3 85 c3 64 8 89 22 102 13 14 21 15 35 7
14 -9 18 -29 20 -103 l3 -91 29 0 30 0 0 100 c0 87 -3 103 -20 120 -25 25 -71
26 -101 1 -22 -18 -23 -18 -43 0 -25 24 -64 24 -96 2z"/>
<path d="M3002 534 c-12 -8 -22 -10 -22 -5 0 6 -11 11 -25 11 l-25 0 0 -115 0
-115 25 0 c24 0 25 2 25 73 0 79 15 120 45 125 32 7 45 -25 45 -115 0 -82 0
-83 25 -83 24 0 25 2 25 74 0 59 4 78 21 100 44 56 69 23 69 -93 l0 -81 30 0
30 0 0 84 c0 110 -12 144 -55 152 -21 4 -43 0 -64 -11 -28 -14 -34 -14 -53 0
-29 19 -67 19 -96 -1z"/>
<path d="M3469 535 c-30 -16 -44 -56 -30 -84 6 -10 31 -26 56 -36 37 -14 46
-21 43 -39 -3 -18 -9 -21 -51 -20 -43 0 -48 -2 -45 -20 3 -18 10 -21 60 -21
65 0 98 22 98 65 0 36 -18 56 -63 70 -31 10 -38 16 -35 33 3 19 10 22 46 22
32 0 42 4 42 16 0 31 -74 40 -121 14z"/>
<path d="M3667 534 c-25 -13 -28 -20 -25 -57 3 -39 5 -42 48 -58 36 -13 45
-21 45 -40 0 -22 -4 -24 -48 -23 -43 0 -48 -2 -45 -20 2 -17 11 -22 47 -24 80
-6 118 25 109 89 -2 17 -16 30 -48 46 -61 29 -63 58 -2 58 37 0 42 3 40 20 -2
16 -12 20 -48 22 -26 2 -57 -4 -73 -13z"/>
<path d="M4013 530 c-41 -25 -53 -48 -53 -104 0 -64 38 -106 101 -113 108 -12
169 78 120 175 -32 62 -105 81 -168 42z m107 -47 c17 -22 21 -37 17 -66 -7
-49 -22 -67 -58 -67 -35 0 -59 32 -59 80 0 75 58 106 100 53z"/>
<path d="M4320 533 c-17 -12 -25 -13 -28 -5 -2 7 -15 12 -28 12 -24 0 -24 0
-24 -116 l0 -115 28 3 c26 3 27 5 33 78 6 86 13 107 40 115 37 12 48 -11 51
-103 3 -87 3 -87 31 -90 l27 -3 0 100 c0 88 -3 104 -20 121 -25 25 -77 26
-110 3z"/>
<path d="M4708 534 c-16 -8 -28 -10 -28 -4 0 5 -11 10 -25 10 l-25 0 0 -115
c0 -114 0 -115 24 -115 22 0 24 4 28 80 5 84 23 120 58 120 30 0 39 -24 42
-110 3 -84 3 -85 31 -88 l27 -3 0 96 c0 89 -2 98 -25 120 -28 28 -66 32 -107
9z"/>
<path d="M4943 538 c-47 -23 -66 -143 -30 -192 19 -26 68 -35 110 -21 36 12
37 12 37 -10 0 -14 -12 -33 -27 -45 -27 -21 -50 -22 -95 -5 -14 6 -18 2 -18
-18 0 -23 5 -27 43 -32 58 -9 106 5 131 39 18 24 21 45 24 157 l4 129 -25 0
c-14 0 -27 -5 -29 -12 -3 -8 -11 -7 -28 5 -27 19 -64 21 -97 5z"/>
<path d="M5908 534 c-16 -8 -28 -10 -28 -4 0 5 -11 10 -25 10 l-25 0 0 -160 0
-160 25 0 c24 0 25 3 25 61 l0 60 22 -15 c37 -26 85 -20 120 14 29 29 30 34
26 97 -4 57 -8 69 -32 89 -31 27 -68 30 -108 8z"/>
<path d="M6182 534 c-12 -8 -22 -10 -22 -5 0 6 -13 11 -30 11 l-30 0 0 -160 0
-160 30 0 30 0 0 61 0 60 22 -15 c37 -26 85 -20 120 14 29 29 30 34 26 97 -4
57 -8 69 -32 89 -32 28 -81 31 -114 8z"/>
<path d="M6424 532 c-61 -39 -71 -139 -20 -191 23 -22 35 -26 85 -26 69 0 95
18 113 77 15 49 -3 111 -38 134 -39 26 -104 28 -140 6z m103 -44 c47 -44 19
-138 -41 -138 -31 0 -47 20 -53 67 -4 29 0 44 17 66 26 33 46 34 77 5z"/>
<path d="M6735 525 c-23 -22 -25 -23 -25 -5 0 15 -7 20 -25 20 l-26 0 3 -112
3 -113 28 -3 27 -3 0 71 c0 87 11 110 50 110 27 0 30 3 30 30 0 38 -30 41 -65
5z"/>
<path d="M7552 534 c-12 -8 -22 -10 -22 -5 0 6 -13 11 -30 11 l-30 0 0 -115 0
-115 30 0 30 0 0 75 c0 87 17 125 56 125 33 0 44 -32 44 -126 0 -72 1 -74 25
-74 25 0 25 0 25 98 0 85 -3 101 -20 120 -25 26 -75 29 -108 6z"/>
<path d="M5560 445 c0 -84 2 -96 22 -115 26 -24 76 -26 104 -5 25 19 34 19 34
-1 0 -10 7 -14 23 -12 21 3 22 7 25 116 l3 112 -31 0 -30 0 0 -73 c0 -86 -17
-120 -58 -115 -32 4 -40 27 -41 121 -1 65 -2 67 -26 67 -25 0 -25 0 -25 -95z"/>
</g>
</svg>
